<svg width="1024" height="1024" viewBox="0 0 1024 1024" fill="none" xmlns="http://www.w3.org/2000/svg">
<g clip-path="url(#clip0_4916_6843)">
<path opacity="0.1" d="M512 1024C794.77 1024 1024 794.77 1024 512C1024 229.23 794.77 0 512 0C229.23 0 0 229.23 0 512C0 794.77 229.23 1024 512 1024Z" fill="white"/>
<path opacity="0.3" d="M512 101.25C285.109 101.25 101.249 285.109 101.249 512C101.249 738.891 285.109 922.751 512 922.751C738.891 922.751 922.751 738.891 922.751 512C922.751 285.109 738.776 101.25 512 101.25Z" fill="white"/>
<path d="M512 202.499C341.027 202.499 202.499 341.027 202.499 512C202.499 682.974 341.027 821.501 512 821.501C682.974 821.501 821.501 682.974 821.501 512C821.501 341.027 682.858 202.499 512 202.499Z" fill="white"/>
<path fill-rule="evenodd" clip-rule="evenodd" d="M433.302 397.059H496.928V430.54H433.302V397.059Z" fill="#1D2BC2"/>
<path d="M365.649 529.028H658.006L644.66 589.548L758.681 1100.17H269.347L380.606 590.008L365.649 529.028Z" fill="#1D2BC2"/>
<path fill-rule="evenodd" clip-rule="evenodd" d="M375.659 379.571H410.636V462.066H349.886L362.542 511.655H661.573L674.229 462.066H613.48V379.571H648.457L512.115 291.898L375.659 379.571Z" fill="#1D2BC2"/>
<path d="M604.85 704.144L400.28 724.739L421.566 599.443H586.441L604.85 704.144Z" fill="white"/>
<path d="M674.229 1102.24H335.964L385.208 813.332L619.808 789.861L674.229 1102.24Z" fill="white"/>
<path fill-rule="evenodd" clip-rule="evenodd" d="M447.453 379.34V396.599H496.928V430.08H447.453V461.721H555.951V379.34H447.453Z" fill="white"/>
</g>
<defs>
<clipPath id="clip0_4916_6843">
<rect width="1024" height="1024" rx="228" fill="white"/>
</clipPath>
</defs>
</svg>
